<?xml version="1.0" encoding="UTF-8" standalone="no"?><!-- Generator: Gravit.io --><svg xmlns="http://www.w3.org/2000/svg" xmlns:xlink="http://www.w3.org/1999/xlink" style="isolation:isolate" viewBox="0 0 512 512" width="512pt" height="512pt"><defs><clipPath id="_clipPath_JiUfl6JjsdnxbmejTIOolZjipBsxFgte"><rect width="512" height="512"/></clipPath></defs><g clip-path="url(#_clipPath_JiUfl6JjsdnxbmejTIOolZjipBsxFgte)"><g><path d=" M 203.939 473.397 C 183.362 472.468 177.925 441.15 157.972 447.224 C 133.661 450 113.713 433.175 90.676 429.935 C 67.045 424.814 62.741 400.246 51.482 383.561 C 40.33 365.161 42.604 342.207 44.848 321.861 C 53.912 303.292 55.085 282.617 65.224 264.473 C 74.08 245.706 98.738 238.484 118.334 244.906 C 131.015 249.147 139.66 252.024 141.314 236.413 C 161.843 220.372 126.714 211.671 124.049 194.149 C 115.509 176.325 109.27 156.583 89.041 147.695 C 67.72 130.015 73.152 92.724 99.635 82.339 C 120.582 72.252 142.973 84.505 158.506 98.074 C 178.623 113.101 189.414 136.249 198.093 158.549 C 209.73 167.745 220.784 188.12 234.319 190.565 C 265.239 183.906 228.877 160.1 240.042 140.579 C 244.359 119.678 209.055 112.929 213.028 90.163 C 209.43 65.785 234.663 43.596 259.72 47.929 C 276.956 48.167 291.644 67.644 302.164 72.34 C 310.922 50.578 337.358 40.711 359.883 38.35 C 382.611 32.535 409.121 36.932 421.339 58.079 C 449.456 77.811 472.289 107.924 473.37 142.334 C 476.601 166.085 480.168 191.535 472.011 214.608 C 463.407 235.343 436.371 239.365 429.221 259.931 C 415.9 279.149 388.306 279.472 368.65 269.865 C 346.955 263.347 360.42 299.04 348.901 308.742 C 349.496 322.32 365.66 334.239 372.722 346.431 C 386.63 362.725 393.015 387.855 376.945 405.013 C 358.858 427.163 318.458 421.544 307.234 395.735 C 294.03 377.25 280.693 358.925 265.828 341.743 C 253.149 316.206 250.797 359.495 238.683 365.01 C 223.323 382.074 239.293 403.815 251.477 417.939 C 264.182 441.725 244.567 474.484 215.979 473.955 C 211.96 474.053 207.918 474.04 203.939 473.397 Z " fill="rgb(0,0,0)"/></g></g></svg>